<?xml version="1.0" encoding="UTF-8"?>
<svg width="1024px" height="741px" viewBox="0 0 1024 741" version="1.1" xmlns="http://www.w3.org/2000/svg" xmlns:xlink="http://www.w3.org/1999/xlink">
    <!-- Generator: Sketch 63 (92445) - https://sketch.com -->
    <title>Group 8</title>
    <desc>Created with Sketch.</desc>
    <g id="Sprint-I" stroke="none" stroke-width="1" fill="none" fill-rule="evenodd">
        <g id="home/l" transform="translate(0.000000, -5265.000000)">
            <g id="final-cta" transform="translate(0.000000, 5265.000000)">
                <g id="Group-8">
                    <path d="M0,175.965026 C60.1547507,189.278479 162.766579,195.935206 307.835485,195.935206 C525.438845,195.935206 602.061794,179.895077 743.742662,175.965026 C838.196575,173.344991 932.873459,173.344991 1027.77331,175.965026 L1027.77331,708.664644 C1039.97054,698.415319 961.207903,693.290657 791.485415,693.290657 C536.901681,693.290657 385.06442,736.133392 259.364887,740.258797 C175.565197,743.009067 89.1102353,738.105577 0,725.548327 L0,175.965026 Z" id="Rectangle-Copy-6" fill="#383A4F"></path>
                    <path d="M0,54.8874843 C59.9252548,72.6087353 162.14561,81.4693607 306.661064,81.4693607 C523.434247,81.4693607 682.244201,6.46285104 804.813176,1.16852913 C886.525826,-2.36101882 959.538855,2.10519586 1023.85226,14.5671732 L1023.85226,523.629145 C1046.90119,496.078667 973.888158,482.303428 804.813176,482.303428 C551.200703,482.303428 449.501215,560.238984 303.956141,565.808044 C206.926091,569.520751 105.669662,564.560197 0.186853412,550.926383 L0,54.8874843 Z" id="Rectangle" fill="#F58D85"></path>
                </g>
            </g>
        </g>
    </g>
</svg>