<?xml version="1.0" encoding="UTF-8"?>
<svg width="414px" height="683px" viewBox="0 0 414 683" version="1.1" xmlns="http://www.w3.org/2000/svg" xmlns:xlink="http://www.w3.org/1999/xlink">
    <!-- Generator: Sketch 63 (92445) - https://sketch.com -->
    <title>Group 3</title>
    <desc>Created with Sketch.</desc>
    <g id="Sprint-I" stroke="none" stroke-width="1" fill="none" fill-rule="evenodd">
        <g id="home" transform="translate(0.000000, -5615.000000)">
            <g id="final-cta" transform="translate(0.000000, 5615.000000)">
                <g id="Group-3">
                    <path d="M0,180.794715 C24.209233,192.954278 65.5052841,199.03406 123.888153,199.03406 C211.462457,199.03406 242.299304,184.384145 299.31866,180.794715 C337.331564,178.401762 375.434203,178.401762 413.626576,180.794715 L413.626576,667.32473 C417.876567,650.056152 385.84922,641.421863 317.544535,641.421863 C215.087509,641.421863 153.994324,678.603483 103.406644,682.371335 C69.681524,684.883236 35.2126426,679.867701 0,667.32473 L0,180.794715 Z" id="Rectangle-Copy-6" fill="#383A4F"></path>
                    <path d="M0,18.9461257 C24.2310892,36.7559983 65.5644225,45.6609346 124,45.6609346 C211.653366,45.6609346 276.604674,7.98119717 326.166078,2.66039906 C359.207014,-0.886799685 388.484988,-0.886799685 414,2.66039906 L414,490.031901 C390.36635,468.733722 344.36635,458.084632 276,458.084632 C173.450475,458.084632 156.300894,497.089568 97.4489849,502.686478 C58.2143786,506.417751 25.7313836,502.199559 0,490.031901 L0,18.9461257 Z" id="Rectangle" fill="#F58D85"></path>
                </g>
            </g>
        </g>
    </g>
</svg>